<mxfile host="drawio-plugin" modified="2024-05-07T20:06:19.231Z" agent="5.0 (Macintosh; Intel Mac OS X 10_15_7) AppleWebKit/537.36 (KHTML, like Gecko) Chrome/122.0.0.0 Safari/537.36" etag="ZEN1-u_TpgYrBZGKr1F0" version="20.5.3" type="embed"><diagram name="Page-1" id="81PZOYvy8q0-xHnldSnm"><mxGraphModel dx="1120" dy="4650" grid="1" gridSize="10" guides="1" tooltips="1" connect="1" arrows="1" fold="1" page="1" pageScale="1" pageWidth="2000" pageHeight="4000" math="0" shadow="0"><root><mxCell id="0"/><mxCell id="1" parent="0"/><mxCell id="kUkujvDzG1BZQMMwlVrA-21" value="" style="rounded=1;whiteSpace=wrap;html=1;" parent="1" vertex="1"><mxGeometry x="120" y="50" width="690" height="380" as="geometry"/></mxCell><mxCell id="kUkujvDzG1BZQMMwlVrA-6" style="edgeStyle=orthogonalEdgeStyle;rounded=0;orthogonalLoop=1;jettySize=auto;html=1;entryX=0;entryY=0.5;entryDx=0;entryDy=0;" parent="1" source="kUkujvDzG1BZQMMwlVrA-1" target="kUkujvDzG1BZQMMwlVrA-5" edge="1"><mxGeometry relative="1" as="geometry"/></mxCell><mxCell id="kUkujvDzG1BZQMMwlVrA-10" style="edgeStyle=orthogonalEdgeStyle;rounded=0;orthogonalLoop=1;jettySize=auto;html=1;entryX=0;entryY=0.5;entryDx=0;entryDy=0;" parent="1" source="kUkujvDzG1BZQMMwlVrA-1" target="kUkujvDzG1BZQMMwlVrA-9" edge="1"><mxGeometry relative="1" as="geometry"/></mxCell><mxCell id="kUkujvDzG1BZQMMwlVrA-1" value="Gateway" style="triangle;whiteSpace=wrap;html=1;" parent="1" vertex="1"><mxGeometry x="160" y="190" width="75" height="100" as="geometry"/></mxCell><mxCell id="kUkujvDzG1BZQMMwlVrA-2" value="Oauth2 service" style="rounded=1;whiteSpace=wrap;html=1;" parent="1" vertex="1"><mxGeometry x="350" y="-30" width="130" height="60" as="geometry"/></mxCell><mxCell id="kUkujvDzG1BZQMMwlVrA-19" style="edgeStyle=orthogonalEdgeStyle;rounded=0;orthogonalLoop=1;jettySize=auto;html=1;" parent="1" source="kUkujvDzG1BZQMMwlVrA-4" target="kUkujvDzG1BZQMMwlVrA-2" edge="1"><mxGeometry relative="1" as="geometry"/></mxCell><mxCell id="kUkujvDzG1BZQMMwlVrA-7" style="edgeStyle=orthogonalEdgeStyle;rounded=0;orthogonalLoop=1;jettySize=auto;html=1;exitX=1;exitY=0.5;exitDx=0;exitDy=0;" parent="1" source="kUkujvDzG1BZQMMwlVrA-5" target="kUkujvDzG1BZQMMwlVrA-4" edge="1"><mxGeometry relative="1" as="geometry"/></mxCell><mxCell id="kUkujvDzG1BZQMMwlVrA-5" value="LB" style="rounded=1;whiteSpace=wrap;html=1;" parent="1" vertex="1"><mxGeometry x="340" y="280" width="30" height="60" as="geometry"/></mxCell><mxCell id="kUkujvDzG1BZQMMwlVrA-18" style="edgeStyle=orthogonalEdgeStyle;rounded=0;orthogonalLoop=1;jettySize=auto;html=1;" parent="1" source="kUkujvDzG1BZQMMwlVrA-8" target="kUkujvDzG1BZQMMwlVrA-13" edge="1"><mxGeometry relative="1" as="geometry"><Array as="points"><mxPoint x="610" y="390"/><mxPoint x="610" y="240"/><mxPoint x="693" y="240"/></Array></mxGeometry></mxCell><mxCell id="kUkujvDzG1BZQMMwlVrA-8" value="Get service" style="rounded=1;whiteSpace=wrap;html=1;" parent="1" vertex="1"><mxGeometry x="400" y="360" width="120" height="60" as="geometry"/></mxCell><mxCell id="kUkujvDzG1BZQMMwlVrA-11" style="edgeStyle=orthogonalEdgeStyle;rounded=0;orthogonalLoop=1;jettySize=auto;html=1;" parent="1" source="kUkujvDzG1BZQMMwlVrA-9" target="kUkujvDzG1BZQMMwlVrA-8" edge="1"><mxGeometry relative="1" as="geometry"/></mxCell><mxCell id="kUkujvDzG1BZQMMwlVrA-9" value="LB" style="rounded=1;whiteSpace=wrap;html=1;" parent="1" vertex="1"><mxGeometry x="340" y="360" width="30" height="60" as="geometry"/></mxCell><mxCell id="kUkujvDzG1BZQMMwlVrA-12" value="Bulb DB" style="shape=cylinder3;whiteSpace=wrap;html=1;boundedLbl=1;backgroundOutline=1;size=15;" parent="1" vertex="1"><mxGeometry x="640" y="270" width="112.5" height="150" as="geometry"/></mxCell><mxCell id="kUkujvDzG1BZQMMwlVrA-13" value="noSQL DB" style="shape=cylinder3;whiteSpace=wrap;html=1;boundedLbl=1;backgroundOutline=1;size=15;" parent="1" vertex="1"><mxGeometry x="640" y="80" width="105" height="140" as="geometry"/></mxCell><mxCell id="kUkujvDzG1BZQMMwlVrA-15" style="edgeStyle=orthogonalEdgeStyle;rounded=0;orthogonalLoop=1;jettySize=auto;html=1;entryX=0;entryY=0.5;entryDx=0;entryDy=0;entryPerimeter=0;" parent="1" source="kUkujvDzG1BZQMMwlVrA-4" target="kUkujvDzG1BZQMMwlVrA-12" edge="1"><mxGeometry relative="1" as="geometry"/></mxCell><mxCell id="kUkujvDzG1BZQMMwlVrA-16" style="edgeStyle=orthogonalEdgeStyle;rounded=0;orthogonalLoop=1;jettySize=auto;html=1;entryX=0;entryY=0;entryDx=0;entryDy=97.5;entryPerimeter=0;" parent="1" source="kUkujvDzG1BZQMMwlVrA-4" target="kUkujvDzG1BZQMMwlVrA-13" edge="1"><mxGeometry relative="1" as="geometry"/></mxCell><mxCell id="kUkujvDzG1BZQMMwlVrA-17" style="edgeStyle=orthogonalEdgeStyle;rounded=0;orthogonalLoop=1;jettySize=auto;html=1;" parent="1" source="kUkujvDzG1BZQMMwlVrA-8" edge="1"><mxGeometry relative="1" as="geometry"><mxPoint x="640" y="390" as="targetPoint"/><Array as="points"><mxPoint x="640" y="390"/></Array></mxGeometry></mxCell><mxCell id="kUkujvDzG1BZQMMwlVrA-20" style="edgeStyle=orthogonalEdgeStyle;rounded=0;orthogonalLoop=1;jettySize=auto;html=1;exitX=0.5;exitY=0;exitDx=0;exitDy=0;entryX=0.367;entryY=1.067;entryDx=0;entryDy=0;entryPerimeter=0;" parent="1" source="kUkujvDzG1BZQMMwlVrA-8" target="kUkujvDzG1BZQMMwlVrA-2" edge="1"><mxGeometry relative="1" as="geometry"/></mxCell><mxCell id="kUkujvDzG1BZQMMwlVrA-4" value="Post service" style="rounded=1;whiteSpace=wrap;html=1;" parent="1" vertex="1"><mxGeometry x="400" y="280" width="120" height="60" as="geometry"/></mxCell><mxCell id="kUkujvDzG1BZQMMwlVrA-22" value="&lt;b&gt;&lt;font style=&quot;font-size: 24px;&quot;&gt;MyTube&lt;/font&gt;&lt;/b&gt;" style="text;html=1;align=center;verticalAlign=middle;whiteSpace=wrap;rounded=0;" parent="1" vertex="1"><mxGeometry x="200" y="90" width="60" height="30" as="geometry"/></mxCell></root></mxGraphModel></diagram></mxfile>